<?xml version="1.0" encoding="UTF-8" standalone="no"?>
<!-- Created with Inkscape (http://www.inkscape.org/) -->

<svg
   xmlns:rendltx="http://NOTSET"
   xmlns:dc="http://purl.org/dc/elements/1.1/"
   xmlns:cc="http://creativecommons.org/ns#"
   xmlns:rdf="http://www.w3.org/1999/02/22-rdf-syntax-ns#"
   xmlns:svg="http://www.w3.org/2000/svg"
   xmlns="http://www.w3.org/2000/svg"
   xmlns:xlink="http://www.w3.org/1999/xlink"
   xmlns:sodipodi="http://sodipodi.sourceforge.net/DTD/sodipodi-0.dtd"
   xmlns:inkscape="http://www.inkscape.org/namespaces/inkscape"
   width="210mm"
   height="297mm"
   viewBox="0 0 210 297"
   version="1.1"
   id="svg8"
   inkscape:version="0.92.3 (2405546, 2018-03-11)"
   sodipodi:docname="LaTeXTextExample.svg"
   inkscape:export-filename="/home/jbwillis/sandbox/inkscape/latex/LaTeXTextExample_Text.png"
   inkscape:export-xdpi="600"
   inkscape:export-ydpi="600">
  <sodipodi:namedview
     id="base"
     pagecolor="#ffffff"
     bordercolor="#666666"
     borderopacity="1.0"
     inkscape:pageopacity="0.0"
     inkscape:pageshadow="2"
     inkscape:zoom="0.98994949"
     inkscape:cx="97.775605"
     inkscape:cy="871.0512"
     inkscape:document-units="mm"
     inkscape:current-layer="layer2"
     showgrid="false"
     inkscape:window-width="1920"
     inkscape:window-height="1025"
     inkscape:window-x="0"
     inkscape:window-y="27"
     inkscape:window-maximized="1" />
  <defs
     id="defs2" />
  <metadata
     id="metadata5">
    <rdf:RDF>
      <cc:Work
         rdf:about="">
        <dc:format>image/svg+xml</dc:format>
        <dc:type
           rdf:resource="http://purl.org/dc/dcmitype/StillImage" />
        <dc:title></dc:title>
      </cc:Work>
    </rdf:RDF>
  </metadata>
  <g
     style="display:inline"
     id="layer1"
     inkscape:groupmode="layer"
     inkscape:label="Layer 1">
    <path
       inkscape:connector-curvature="0"
       id="path815"
       d="M 30.238094,136.73809 106.58928,56.229165 166.6875,152.61309 Z"
       style="fill:none;stroke:#000000;stroke-width:1;stroke-linecap:butt;stroke-linejoin:miter;stroke-miterlimit:4;stroke-dasharray:none;stroke-opacity:1" />
  </g>
  <g
     style="display:inline"
     inkscape:label="Text"
     id="layer2"
     inkscape:groupmode="layer">
    <text
       id="text820"
       y="66.8125"
       x="103.94345"
       style="font-style:normal;font-weight:normal;font-size:10.58333302px;line-height:1.25;font-family:sans-serif;letter-spacing:0px;word-spacing:0px;fill:#000000;fill-opacity:1;stroke:none;stroke-width:0.26458332"
       xml:space="preserve"><tspan
         style="stroke-width:0.26458332"
         y="66.8125"
         x="103.94345"
         id="tspan818"
         sodipodi:role="line">$\tau$</tspan></text>
    <text
       id="text824"
       y="132.95833"
       x="39.309525"
       style="font-style:normal;font-weight:normal;font-size:10.58333302px;line-height:1.25;font-family:sans-serif;letter-spacing:0px;word-spacing:0px;fill:#000000;fill-opacity:1;stroke:none;stroke-width:0.26458332"
       xml:space="preserve"><tspan
         style="stroke-width:0.26458332"
         y="132.95833"
         x="39.309525"
         id="tspan822"
         sodipodi:role="line">$\theta$</tspan></text>
    <text
       id="text828"
       y="145.99295"
       x="138.20767"
       style="font-style:normal;font-weight:normal;font-size:10.58333302px;line-height:1.25;font-family:sans-serif;letter-spacing:0px;word-spacing:0px;fill:#000000;fill-opacity:1;stroke:none;stroke-width:0.26458332"
       xml:space="preserve"><tspan
         style="direction:ltr;stroke-width:0.26458332"
         y="145.99295"
         x="138.20767"
         id="tspan826"
         sodipodi:role="line">$\varphi$</tspan></text>
    <text
       id="text1479"
       y="94.409683"
       x="114.9259"
       style="font-style:normal;font-weight:normal;font-size:10.58333302px;line-height:1.25;font-family:sans-serif;letter-spacing:0px;word-spacing:0px;fill:#000000;fill-opacity:1;stroke:none;stroke-width:0.26458332"
       xml:space="preserve"><tspan
         style="stroke-width:0.26458332"
         y="103.77345"
         x="114.9259"
         id="tspan1477"
         sodipodi:role="line" /></text>
    <text
       id="text1699"
       y="19.841492"
       x="16.306337"
       style="font-style:normal;font-weight:normal;font-size:10.58333302px;line-height:1.25;font-family:sans-serif;text-align:start;letter-spacing:0px;word-spacing:0px;text-anchor:start;fill:#000000;fill-opacity:1;stroke:none;stroke-width:0.26458332"
       xml:space="preserve"><tspan
         style="font-size:7.05555534px;text-align:start;text-anchor:start;stroke-width:0.26458332"
         y="19.841492"
         x="16.306337"
         id="tspan1697"
         sodipodi:role="line">A nice title for this \LaTeX example</tspan></text>
  </g>
  <g
     rendltx:math="False"
     rendltx:newline="False"
     rendltx:fontsize="10.0"
     rendltx:depth="0.0"
     rendltx:scale="4.0"
     rendltx:packages="amsmath,amssymb"
     rendltx:preamble=""
     id="ltx-render-layer"
     inkscape:groupmode="layer"
     inkscape:label="Rendered Latex"
     style="display:inline">
    <g
       id="lx-text820"
       transform="matrix(0.352778,0,0,0.352778,101.00349,70.287004)">
      <defs
         id="defs2960">
        <g
           id="g2958">
          <symbol
             id="lx-text820-glyph0-0"
             overflow="visible"
             style="overflow:visible">
            <path
               id="path2952"
               d=""
               style="stroke:none"
               inkscape:connector-curvature="0" />
          </symbol>
          <symbol
             id="lx-text820-glyph0-1"
             overflow="visible"
             style="overflow:visible">
            <path
               id="path2955"
               d="m 11.71875,-14.859375 h 6.6875 c 0.515625,0 1.953125,0 1.953125,-1.359375 0,-0.953125 -0.828125,-0.953125 -1.59375,-0.953125 H 7.609375 c -0.796875,0 -2.34375,0 -4.109375,1.875 -1.3125,1.4375 -2.421875,3.34375 -2.421875,3.578125 0,0.04687 0,0.40625 0.46875,0.40625 0.328125,0 0.40625,-0.15625 0.640625,-0.484375 1.953125,-3.0625 4.234375,-3.0625 5.0625,-3.0625 h 3.3125 L 6.65625,-2.078125 C 6.5,-1.59375 6.25,-0.75 6.25,-0.59375 c 0,0.4375 0.28125,1.078125 1.15625,1.078125 1.3125,0 1.515625,-1.125 1.640625,-1.71875 z m 0,0"
               style="stroke:none"
               inkscape:connector-curvature="0" />
          </symbol>
        </g>
      </defs>
      <g
         id="lx-text820-surface1">
        <g
           id="g2964"
           style="fill:#000000;fill-opacity:1">
          <use
             id="use2962"
             y="0"
             x="0"
             xlink:href="#lx-text820-glyph0-1"
             width="100%"
             height="100%" />
        </g>
      </g>
    </g>
    <g
       id="lx-text824"
       transform="matrix(0.352778,0,0,0.352778,45.456724,135.63103)">
      <defs
         id="defs2976">
        <g
           id="g2974">
          <symbol
             id="lx-text824-glyph0-0"
             overflow="visible"
             style="overflow:visible">
            <path
               id="path2968"
               d=""
               style="stroke:none"
               inkscape:connector-curvature="0" />
          </symbol>
          <symbol
             id="lx-text824-glyph0-1"
             overflow="visible"
             style="overflow:visible">
            <path
               id="path2971"
               d="m 18.125,-19.921875 c 0,-2.625 -0.71875,-8.171875 -4.78125,-8.171875 -5.53125,0 -11.671875,11.234375 -11.671875,20.359375 0,3.75 1.15625,8.171875 4.78125,8.171875 C 12.078125,0.4375 18.125,-11 18.125,-19.921875 Z M 5.890625,-14.46875 c 0.6875,-2.546875 1.484375,-5.734375 3.078125,-8.5625 1.078125,-1.953125 2.546875,-4.1875 4.34375,-4.1875 1.953125,0 2.1875,2.5625 2.1875,4.828125 0,1.953125 -0.3125,3.984375 -1.28125,7.921875 z m 7.96875,1.28125 c -0.4375,1.828125 -1.265625,5.21875 -2.78125,8.09375 -1.390625,2.703125 -2.90625,4.65625 -4.625,4.65625 -1.3125,0 -2.15625,-1.15625 -2.15625,-4.859375 0,-1.671875 0.25,-3.984375 1.28125,-7.890625 z m 0,0"
               style="stroke:none"
               inkscape:connector-curvature="0" />
          </symbol>
        </g>
      </defs>
      <g
         id="lx-text824-surface1">
        <g
           id="g2980"
           style="fill:#000000;fill-opacity:1">
          <use
             id="use2978"
             y="0"
             x="0"
             xlink:href="#lx-text824-glyph0-1"
             width="100%"
             height="100%" />
        </g>
      </g>
    </g>
    <g
       id="lx-text828"
       transform="matrix(0.352778,0,0,0.352778,141.4149,142.51845)">
      <defs
         id="defs2992">
        <g
           id="g2990">
          <symbol
             id="lx-text828-glyph0-0"
             overflow="visible"
             style="overflow:visible">
            <path
               id="path2984"
               d=""
               style="stroke:none"
               inkscape:connector-curvature="0" />
          </symbol>
          <symbol
             id="lx-text828-glyph0-1"
             overflow="visible"
             style="overflow:visible">
            <path
               id="path2987"
               d="M 6.78125,6.78125 C 6.609375,7.296875 6.578125,7.375 6.578125,7.578125 c 0,0.875 0.75,1.109375 1.15625,1.109375 0.1875,0 1.078125,-0.125 1.46875,-1.03125 0.125,-0.328125 0.3125,-1.640625 1.390625,-7.296875 0.359375,0.046875 0.640625,0.078125 1.3125,0.078125 6.625,0 12.75,-6.25 12.75,-12.546875 0,-3.109375 -1.546875,-5.5 -4.53125,-5.5 -5.78125,0 -8.171875,7.734375 -10.5625,15.5 C 5.265625,-2.90625 3.03125,-5.140625 3.03125,-8.015625 3.03125,-9.125 3.9375,-13.5 6.328125,-16.25 c 0.328125,-0.359375 0.328125,-0.4375 0.328125,-0.53125 0,-0.15625 -0.078125,-0.390625 -0.484375,-0.390625 C 5.0625,-17.171875 2,-11.390625 2,-7.578125 c 0,3.75 2.625,6.65625 6.890625,7.65625 z M 12.265625,-1.875 c -0.3125,0 -0.390625,0 -0.703125,-0.03125 -0.484375,0 -0.53125,-0.046875 -0.53125,-0.171875 0,-0.078125 0.6875,-3.703125 0.796875,-4.296875 1.234375,-5.09375 4.34375,-8.921875 7.890625,-8.921875 2.75,0 3.828125,2.140625 3.828125,4.0625 0,4.5 -5.140625,9.359375 -11.28125,9.359375 z m 0,0"
               style="stroke:none"
               inkscape:connector-curvature="0" />
          </symbol>
        </g>
      </defs>
      <g
         id="lx-text828-surface1">
        <g
           id="g2996"
           style="fill:#000000;fill-opacity:1">
          <use
             id="use2994"
             y="0"
             x="0"
             xlink:href="#lx-text828-glyph0-1"
             width="100%"
             height="100%" />
        </g>
      </g>
    </g>
    <g
       id="lx-text1699"
       transform="matrix(0.352778,0,0,0.352778,-2.6021887,19.039683)">
      <defs
         id="defs3071">
        <g
           id="g3069">
          <symbol
             id="lx-text1699-glyph0-0"
             overflow="visible"
             style="overflow:visible">
            <path
               id="path3000"
               d=""
               style="stroke:none"
               inkscape:connector-curvature="0" />
          </symbol>
          <symbol
             id="lx-text1699-glyph0-1"
             overflow="visible"
             style="overflow:visible">
            <path
               id="path3003"
               d="M 15.859375,-27.734375 C 15.65625,-28.25 15.578125,-28.53125 14.9375,-28.53125 c -0.640625,0 -0.75,0.234375 -0.953125,0.796875 l -8.25,23.828125 c -0.71875,2.03125 -2.3125,2.625 -4.453125,2.671875 V 0 c 0.90625,-0.046875 2.625,-0.125 4.0625,-0.125 1.234375,0 3.296875,0.078125 4.578125,0.125 v -1.234375 c -2,0 -2.984375,-1 -2.984375,-2.03125 0,-0.125 0.03125,-0.515625 0.078125,-0.59375 l 1.828125,-5.21875 h 9.84375 l 2.109375,6.09375 c 0.04687,0.15625 0.125,0.390625 0.125,0.546875 0,1.203125 -2.234375,1.203125 -3.3125,1.203125 V 0 c 1.4375,-0.125 4.21875,-0.125 5.734375,-0.125 1.71875,0 3.546875,0.046875 5.21875,0.125 v -1.234375 h -0.71875 c -2.390625,0 -2.9375,-0.28125 -3.375,-1.59375 z M 13.75,-23.265625 18.25,-10.3125 H 9.28125 Z m 0,0"
               style="stroke:none"
               inkscape:connector-curvature="0" />
          </symbol>
          <symbol
             id="lx-text1699-glyph0-2"
             overflow="visible"
             style="overflow:visible">
            <path
               id="path3006"
               d="M 4.390625,-13.703125 V -3.03125 c 0,1.796875 -0.453125,1.796875 -3.109375,1.796875 V 0 c 1.390625,-0.046875 3.421875,-0.125 4.5,-0.125 1.03125,0 3.109375,0.078125 4.453125,0.125 v -1.234375 c -2.65625,0 -3.109375,0 -3.109375,-1.796875 v -7.328125 c 0,-4.140625 2.84375,-6.375 5.390625,-6.375 2.5,0 2.9375,2.15625 2.9375,4.421875 v 9.28125 c 0,1.796875 -0.4375,1.796875 -3.09375,1.796875 V 0 c 1.390625,-0.046875 3.421875,-0.125 4.5,-0.125 1.03125,0 3.109375,0.078125 4.453125,0.125 v -1.234375 c -2.0625,0 -3.0625,0 -3.109375,-1.203125 v -7.609375 c 0,-3.421875 0,-4.65625 -1.234375,-6.09375 -0.546875,-0.671875 -1.875,-1.46875 -4.171875,-1.46875 -2.921875,0 -4.78125,1.71875 -5.90625,4.1875 v -4.1875 l -5.609375,0.4375 v 1.234375 c 2.78125,0 3.109375,0.28125 3.109375,2.234375 z m 0,0"
               style="stroke:none"
               inkscape:connector-curvature="0" />
          </symbol>
          <symbol
             id="lx-text1699-glyph0-3"
             overflow="visible"
             style="overflow:visible">
            <path
               id="path3009"
               d="m 7.046875,-17.609375 -5.578125,0.4375 v 1.234375 c 2.59375,0 2.953125,0.234375 2.953125,2.1875 v 10.71875 c 0,1.796875 -0.4375,1.796875 -3.109375,1.796875 V 0 c 1.28125,-0.046875 3.421875,-0.125 4.390625,-0.125 1.390625,0 2.78125,0.078125 4.140625,0.125 v -1.234375 c -2.625,0 -2.796875,-0.203125 -2.796875,-1.75 z m 0.171875,-6.9375 c 0,-1.265625 -1,-2.109375 -2.125,-2.109375 -1.234375,0 -2.109375,1.078125 -2.109375,2.109375 0,1.078125 0.875,2.109375 2.109375,2.109375 1.125,0 2.125,-0.828125 2.125,-2.109375 z m 0,0"
               style="stroke:none"
               inkscape:connector-curvature="0" />
          </symbol>
          <symbol
             id="lx-text1699-glyph0-4"
             overflow="visible"
             style="overflow:visible">
            <path
               id="path3012"
               d="m 4.65625,-8.6875 c 0,-6.5 3.265625,-8.171875 5.390625,-8.171875 0.359375,0 2.859375,0.04687 4.25,1.484375 -1.625,0.109375 -1.859375,1.3125 -1.859375,1.828125 0,1.03125 0.71875,1.828125 1.828125,1.828125 1.03125,0 1.828125,-0.671875 1.828125,-1.875 0,-2.703125 -3.03125,-4.25 -6.09375,-4.25 -4.984375,0 -8.640625,4.296875 -8.640625,9.234375 0,5.109375 3.9375,9.046875 8.5625,9.046875 5.34375,0 6.609375,-4.78125 6.609375,-5.171875 0,-0.40625 -0.390625,-0.40625 -0.515625,-0.40625 -0.359375,0 -0.4375,0.15625 -0.515625,0.40625 -1.15625,3.703125 -3.75,4.171875 -5.21875,4.171875 -2.109375,0 -5.625,-1.703125 -5.625,-8.125 z m 0,0"
               style="stroke:none"
               inkscape:connector-curvature="0" />
          </symbol>
          <symbol
             id="lx-text1699-glyph0-5"
             overflow="visible"
             style="overflow:visible">
            <path
               id="path3015"
               d="m 4.46875,-10.046875 c 0.234375,-5.9375 3.578125,-6.921875 4.9375,-6.921875 4.09375,0 4.5,5.375 4.5,6.921875 z m -0.046875,0.84375 h 11.125 c 0.875,0 0.984375,0 0.984375,-0.84375 0,-3.9375 -2.140625,-7.796875 -7.125,-7.796875 -4.625,0 -8.296875,4.09375 -8.296875,9.078125 0,5.34375 4.1875,9.203125 8.765625,9.203125 4.875,0 6.65625,-4.421875 6.65625,-5.171875 0,-0.40625 -0.3125,-0.484375 -0.515625,-0.484375 -0.359375,0 -0.4375,0.234375 -0.515625,0.5625 -1.390625,4.09375 -4.984375,4.09375 -5.375,4.09375 -2,0 -3.59375,-1.1875 -4.5,-2.671875 -1.203125,-1.90625 -1.203125,-4.53125 -1.203125,-5.96875 z m 0,0"
               style="stroke:none"
               inkscape:connector-curvature="0" />
          </symbol>
          <symbol
             id="lx-text1699-glyph0-6"
             overflow="visible"
             style="overflow:visible">
            <path
               id="path3018"
               d="m 6.890625,-15.9375 h 5.703125 v -1.234375 H 6.890625 V -24.5 h -1 C 5.859375,-21.234375 4.65625,-16.96875 0.75,-16.8125 v 0.875 h 3.390625 v 11 c 0,4.890625 3.703125,5.375 5.140625,5.375 2.828125,0 3.953125,-2.828125 3.953125,-5.375 v -2.28125 h -1 v 2.203125 c 0,2.9375 -1.203125,4.453125 -2.671875,4.453125 -2.671875,0 -2.671875,-3.625 -2.671875,-4.296875 z m 0,0"
               style="stroke:none"
               inkscape:connector-curvature="0" />
          </symbol>
          <symbol
             id="lx-text1699-glyph0-7"
             overflow="visible"
             style="overflow:visible">
            <path
               id="path3021"
               d="m 7.046875,-27.65625 -5.734375,0.4375 v 1.234375 c 2.796875,0 3.109375,0.28125 3.109375,2.234375 v 20.71875 c 0,1.796875 -0.4375,1.796875 -3.109375,1.796875 V 0 c 1.3125,-0.046875 3.421875,-0.125 4.421875,-0.125 1,0 2.953125,0.078125 4.421875,0.125 v -1.234375 c -2.671875,0 -3.109375,0 -3.109375,-1.796875 z m 0,0"
               style="stroke:none"
               inkscape:connector-curvature="0" />
          </symbol>
          <symbol
             id="lx-text1699-glyph0-8"
             overflow="visible"
             style="overflow:visible">
            <path
               id="path3024"
               d="m 6.96875,-17.171875 v -4.625 c 0,-3.5 1.921875,-5.421875 3.671875,-5.421875 0.125,0 0.71875,0 1.3125,0.28125 -0.484375,0.15625 -1.1875,0.6875 -1.1875,1.671875 0,0.921875 0.625,1.71875 1.703125,1.71875 1.15625,0 1.75,-0.796875 1.75,-1.75 0,-1.484375 -1.46875,-2.796875 -3.578125,-2.796875 -2.796875,0 -6.171875,2.109375 -6.171875,6.34375 v 4.578125 H 1.3125 v 1.234375 h 3.15625 v 12.90625 c 0,1.796875 -0.4375,1.796875 -3.109375,1.796875 V 0 c 1.546875,-0.046875 3.421875,-0.125 4.53125,-0.125 1.59375,0 3.46875,0 5.0625,0.125 V -1.234375 H 10.125 c -2.953125,0 -3.03125,-0.4375 -3.03125,-1.875 V -15.9375 h 4.546875 v -1.234375 z m 0,0"
               style="stroke:none"
               inkscape:connector-curvature="0" />
          </symbol>
          <symbol
             id="lx-text1699-glyph0-9"
             overflow="visible"
             style="overflow:visible">
            <path
               id="path3027"
               d="m 18.765625,-8.53125 c 0,-5.09375 -3.984375,-9.3125 -8.796875,-9.3125 -4.984375,0 -8.859375,4.34375 -8.859375,9.3125 0,5.140625 4.15625,8.96875 8.8125,8.96875 4.828125,0 8.84375,-3.90625 8.84375,-8.96875 z M 9.96875,-0.5625 C 8.25,-0.5625 6.5,-1.390625 5.421875,-3.234375 c -1,-1.75 -1,-4.171875 -1,-5.609375 0,-1.5625 0,-3.703125 0.953125,-5.453125 1.078125,-1.84375 2.953125,-2.671875 4.546875,-2.671875 1.75,0 3.46875,0.875 4.5,2.578125 1.03125,1.71875 1.03125,4.03125 1.03125,5.546875 0,1.4375 0,3.578125 -0.875,5.34375 -0.875,1.78125 -2.625,2.9375 -4.609375,2.9375 z m 0,0"
               style="stroke:none"
               inkscape:connector-curvature="0" />
          </symbol>
          <symbol
             id="lx-text1699-glyph0-10"
             overflow="visible"
             style="overflow:visible">
            <path
               id="path3030"
               d="m 6.65625,-13.234375 v -4.375 l -5.546875,0.4375 v 1.234375 c 2.796875,0 3.109375,0.28125 3.109375,2.234375 V -3.03125 c 0,1.796875 -0.4375,1.796875 -3.109375,1.796875 V 0 c 1.5625,-0.046875 3.4375,-0.125 4.546875,-0.125 1.59375,0 3.46875,0 5.0625,0.125 V -1.234375 H 9.875 c -2.9375,0 -3.015625,-0.4375 -3.015625,-1.875 V -9.25 c 0,-3.9375 1.671875,-7.484375 4.703125,-7.484375 0.265625,0 0.34375,0 0.4375,0.04687 -0.125,0.03125 -0.921875,0.515625 -0.921875,1.546875 0,1.109375 0.828125,1.71875 1.71875,1.71875 0.703125,0 1.703125,-0.484375 1.703125,-1.765625 0,-1.265625 -1.234375,-2.421875 -2.9375,-2.421875 -2.921875,0 -4.34375,2.671875 -4.90625,4.375 z m 0,0"
               style="stroke:none"
               inkscape:connector-curvature="0" />
          </symbol>
          <symbol
             id="lx-text1699-glyph0-11"
             overflow="visible"
             style="overflow:visible">
            <path
               id="path3033"
               d="m 4.390625,-3.03125 c 0,1.796875 -0.453125,1.796875 -3.109375,1.796875 V 0 c 1.390625,-0.046875 3.421875,-0.125 4.5,-0.125 1.03125,0 3.109375,0.078125 4.453125,0.125 v -1.234375 c -2.65625,0 -3.109375,0 -3.109375,-1.796875 v -7.328125 c 0,-4.140625 2.84375,-6.375 5.390625,-6.375 2.5,0 2.9375,2.15625 2.9375,4.421875 v 9.28125 c 0,1.796875 -0.4375,1.796875 -3.09375,1.796875 V 0 c 1.390625,-0.046875 3.421875,-0.125 4.5,-0.125 1.03125,0 3.109375,0.078125 4.453125,0.125 v -1.234375 c -2.0625,0 -3.0625,0 -3.109375,-1.203125 v -7.609375 c 0,-3.421875 0,-4.65625 -1.234375,-6.09375 -0.546875,-0.671875 -1.875,-1.46875 -4.171875,-1.46875 -3.359375,0 -5.109375,2.390625 -5.78125,3.90625 V -27.65625 l -5.734375,0.4375 v 1.234375 c 2.78125,0 3.109375,0.28125 3.109375,2.234375 z m 0,0"
               style="stroke:none"
               inkscape:connector-curvature="0" />
          </symbol>
          <symbol
             id="lx-text1699-glyph0-12"
             overflow="visible"
             style="overflow:visible">
            <path
               id="path3036"
               d="m 8.28125,-7.734375 c 0.890625,0.15625 4.15625,0.796875 4.15625,3.671875 0,2.03125 -1.40625,3.625 -4.515625,3.625 -3.34375,0 -4.78125,-2.265625 -5.53125,-5.65625 -0.125,-0.515625 -0.15625,-0.6875 -0.5625,-0.6875 -0.515625,0 -0.515625,0.28125 -0.515625,1 v 5.265625 c 0,0.671875 0,0.953125 0.4375,0.953125 0.203125,0 0.25,-0.03125 1,-0.796875 0.078125,-0.078125 0.078125,-0.15625 0.796875,-0.921875 1.75,1.6875 3.546875,1.71875 4.375,1.71875 4.59375,0 6.421875,-2.671875 6.421875,-5.53125 0,-2.125 -1.1875,-3.3125 -1.671875,-3.796875 -1.3125,-1.265625 -2.875,-1.59375 -4.546875,-1.90625 -2.234375,-0.4375 -4.890625,-0.953125 -4.890625,-3.265625 0,-1.390625 1.03125,-3.03125 4.453125,-3.03125 4.390625,0 4.578125,3.59375 4.671875,4.828125 0.03125,0.359375 0.390625,0.359375 0.46875,0.359375 0.515625,0 0.515625,-0.203125 0.515625,-0.96875 v -4.015625 c 0,-0.6875 0,-0.953125 -0.4375,-0.953125 -0.203125,0 -0.28125,0 -0.796875,0.46875 C 12,-17.21875 11.59375,-16.859375 11.4375,-16.734375 9.921875,-17.84375 8.28125,-17.84375 7.6875,-17.84375 c -4.859375,0 -6.375,2.65625 -6.375,4.890625 0,1.390625 0.640625,2.515625 1.71875,3.390625 1.265625,1.03125 2.390625,1.28125 5.25,1.828125 z m 0,0"
               style="stroke:none"
               inkscape:connector-curvature="0" />
          </symbol>
          <symbol
             id="lx-text1699-glyph0-13"
             overflow="visible"
             style="overflow:visible">
            <path
               id="path3039"
               d="m 23.1875,-10.28125 h -1 c -0.4375,4.0625 -0.984375,9.046875 -8,9.046875 h -3.265625 c -1.875,0 -1.953125,-0.28125 -1.953125,-1.59375 V -24.0625 c 0,-1.359375 0,-1.921875 3.78125,-1.921875 h 1.3125 v -1.234375 c -1.4375,0.125 -5.0625,0.125 -6.6875,0.125 -1.5625,0 -4.671875,0 -6.0625,-0.125 v 1.234375 h 0.953125 c 3.078125,0 3.15625,0.4375 3.15625,1.875 v 21 c 0,1.4375 -0.078125,1.875 -3.15625,1.875 H 1.3125 V 0 h 20.765625 z m 0,0"
               style="stroke:none"
               inkscape:connector-curvature="0" />
          </symbol>
          <symbol
             id="lx-text1699-glyph0-14"
             overflow="visible"
             style="overflow:visible">
            <path
               id="path3042"
               d="M 26.53125,-26.96875 H 2.1875 l -0.75,8.953125 h 1 c 0.546875,-6.40625 1.15625,-7.71875 7.171875,-7.71875 0.703125,0 1.75,0 2.140625,0.07813 0.84375,0.15625 0.84375,0.59375 0.84375,1.515625 v 21 c 0,1.34375 0,1.90625 -4.1875,1.90625 H 6.8125 V 0 c 1.640625,-0.125 5.703125,-0.125 7.53125,-0.125 1.828125,0 5.9375,0 7.578125,0.125 v -1.234375 h -1.59375 c -4.1875,0 -4.1875,-0.5625 -4.1875,-1.90625 v -21 c 0,-0.796875 0,-1.359375 0.71875,-1.515625 0.4375,-0.07813 1.515625,-0.07813 2.265625,-0.07813 6.015625,0 6.609375,1.3125 7.171875,7.71875 h 1 z m 0,0"
               style="stroke:none"
               inkscape:connector-curvature="0" />
          </symbol>
          <symbol
             id="lx-text1699-glyph0-15"
             overflow="visible"
             style="overflow:visible">
            <path
               id="path3045"
               d="m 5.421875,-3.109375 c 0,1.4375 -0.078125,1.875 -3.15625,1.875 H 1.3125 V 0 h 23 l 1.671875,-10.28125 h -1 c -1,6.140625 -1.921875,9.046875 -8.765625,9.046875 h -5.296875 c -1.875,0 -1.953125,-0.28125 -1.953125,-1.59375 V -13.46875 h 3.578125 c 3.875,0 4.3125,1.28125 4.3125,4.65625 h 0.984375 v -10.546875 h -0.984375 c 0,3.421875 -0.4375,4.65625 -4.3125,4.65625 H 8.96875 v -9.5625 c 0,-1.3125 0.078125,-1.59375 1.953125,-1.59375 H 16.0625 c 6.09375,0 7.171875,2.1875 7.796875,7.734375 h 1 L 23.75,-27.09375 H 1.3125 v 1.234375 h 0.953125 c 3.078125,0 3.15625,0.4375 3.15625,1.875 z m 0,0"
               style="stroke:none"
               inkscape:connector-curvature="0" />
          </symbol>
          <symbol
             id="lx-text1699-glyph0-16"
             overflow="visible"
             style="overflow:visible">
            <path
               id="path3048"
               d="m 16.015625,-15.375 5.453125,-8.015625 c 0.890625,-1.265625 2.234375,-2.546875 5.78125,-2.59375 v -1.234375 c -1.546875,0.04687 -3.421875,0.125 -4.421875,0.125 -1.59375,0 -3.5,0 -5.09375,-0.125 v 1.234375 c 1.59375,0.04687 2.46875,0.921875 2.46875,1.84375 0,0.390625 -0.07813,0.46875 -0.359375,0.90625 L 15.296875,-16.5 10.15625,-24.1875 C 10.07812,-24.3125 9.875,-24.625 9.875,-24.78125 c 0,-0.484375 0.890625,-1.15625 2.59375,-1.203125 v -1.234375 c -1.390625,0.125 -4.296875,0.125 -5.8125,0.125 -1.234375,0 -3.703125,-0.04687 -5.1875,-0.125 v 1.234375 h 0.765625 c 2.1875,0 2.953125,0.28125 3.703125,1.40625 L 13.265625,-13.5 6.734375,-3.859375 c -0.5625,0.796875 -1.75,2.625 -5.78125,2.625 V 0 C 2.390625,-0.046875 4.0625,-0.125 5.375,-0.125 c 1.484375,0 3.671875,0 5.109375,0.125 V -1.234375 C 8.640625,-1.28125 7.96875,-2.34375 7.96875,-3.0625 c 0,-0.359375 0.125,-0.53125 0.40625,-0.96875 l 5.65625,-8.359375 6.296875,9.515625 c 0.07813,0.171875 0.1875,0.328125 0.1875,0.4375 0,0.484375 -0.875,1.15625 -2.578125,1.203125 V 0 c 1.390625,-0.125 4.296875,-0.125 5.8125,-0.125 1.671875,0 3.5,0.046875 5.171875,0.125 v -1.234375 h -0.75 c -2.078125,0 -2.90625,-0.203125 -3.75,-1.4375 z m 0,0"
               style="stroke:none"
               inkscape:connector-curvature="0" />
          </symbol>
          <symbol
             id="lx-text1699-glyph0-17"
             overflow="visible"
             style="overflow:visible">
            <path
               id="path3051"
               d="m 11.4375,-9.359375 c 1.1875,-1.515625 2.703125,-3.46875 3.65625,-4.5 1.25,-1.4375 2.875,-2.03125 4.75,-2.078125 v -1.234375 c -1.03125,0.07813 -2.234375,0.125 -3.265625,0.125 -1.203125,0 -3.3125,-0.09375 -3.828125,-0.125 v 1.234375 c 0.84375,0.07813 1.15625,0.59375 1.15625,1.234375 0,0.640625 -0.40625,1.15625 -0.59375,1.390625 l -2.46875,3.109375 -3.109375,-4.015625 C 7.375,-14.625 7.375,-14.703125 7.375,-14.9375 c 0,-0.609375 0.59375,-0.953125 1.390625,-1 v -1.234375 c -1.03125,0.03125 -3.671875,0.125 -4.296875,0.125 -0.84375,0 -2.71875,-0.04687 -3.796875,-0.125 V -15.9375 C 3.46875,-15.9375 3.5,-15.89063 5.375,-13.5 l 3.953125,5.125 -3.75,4.75 C 3.671875,-1.3125 1.3125,-1.234375 0.484375,-1.234375 V 0 C 1.515625,-0.078125 2.75,-0.125 3.78125,-0.125 4.9375,-0.125 6.609375,-0.046875 7.578125,0 V -1.234375 C 6.6875,-1.359375 6.421875,-1.875 6.421875,-2.46875 c 0,-0.875 1.15625,-2.1875 3.578125,-5.0625 l 3.03125,3.984375 c 0.3125,0.4375 0.828125,1.078125 0.828125,1.3125 0,0.359375 -0.359375,0.953125 -1.421875,1 V 0 c 1.1875,-0.046875 3.421875,-0.125 4.296875,-0.125 1.078125,0 2.625,0.046875 3.828125,0.125 v -1.234375 c -2.15625,0 -2.875,-0.078125 -3.78125,-1.234375 z m 0,0"
               style="stroke:none"
               inkscape:connector-curvature="0" />
          </symbol>
          <symbol
             id="lx-text1699-glyph0-18"
             overflow="visible"
             style="overflow:visible">
            <path
               id="path3054"
               d="M 13.265625,-3.03125 C 13.421875,-1.4375 14.5,0.234375 16.375,0.234375 c 0.84375,0 3.265625,-0.546875 3.265625,-3.78125 V -5.78125 h -1 v 2.234375 C 18.640625,-1.234375 17.65625,-1 17.21875,-1 15.890625,-1 15.734375,-2.796875 15.734375,-2.984375 v -7.96875 c 0,-1.671875 0,-3.234375 -1.4375,-4.703125 -1.546875,-1.5625 -3.53125,-2.1875 -5.453125,-2.1875 -3.265625,0 -6.015625,1.859375 -6.015625,4.5 0,1.1875 0.796875,1.875 1.828125,1.875 1.125,0 1.84375,-0.796875 1.84375,-1.84375 0,-0.46875 -0.203125,-1.78125 -2.03125,-1.828125 1.0625,-1.390625 3.015625,-1.828125 4.296875,-1.828125 1.953125,0 4.21875,1.546875 4.21875,5.09375 v 1.46875 c -2.03125,0.125 -4.8125,0.25 -7.328125,1.4375 -2.984375,1.359375 -3.984375,3.4375 -3.984375,5.1875 0,3.21875 3.859375,4.21875 6.375,4.21875 2.625,0 4.46875,-1.59375 5.21875,-3.46875 z m -0.28125,-6.53125 v 3.984375 c 0,3.78125 -2.859375,5.140625 -4.65625,5.140625 -1.953125,0 -3.59375,-1.390625 -3.59375,-3.390625 0,-2.1875 1.6875,-5.5 8.25,-5.734375 z m 0,0"
               style="stroke:none"
               inkscape:connector-curvature="0" />
          </symbol>
          <symbol
             id="lx-text1699-glyph0-19"
             overflow="visible"
             style="overflow:visible">
            <path
               id="path3057"
               d="M 4.390625,-13.703125 V -3.03125 c 0,1.796875 -0.453125,1.796875 -3.109375,1.796875 V 0 c 1.390625,-0.046875 3.421875,-0.125 4.5,-0.125 1.03125,0 3.109375,0.078125 4.453125,0.125 v -1.234375 c -2.65625,0 -3.109375,0 -3.109375,-1.796875 v -7.328125 c 0,-4.140625 2.84375,-6.375 5.390625,-6.375 2.5,0 2.9375,2.15625 2.9375,4.421875 v 9.28125 c 0,1.796875 -0.4375,1.796875 -3.09375,1.796875 V 0 c 1.390625,-0.046875 3.421875,-0.125 4.5,-0.125 1.03125,0 3.109375,0.078125 4.453125,0.125 v -1.234375 c -2.671875,0 -3.109375,0 -3.109375,-1.796875 v -7.328125 c 0,-4.140625 2.828125,-6.375 5.390625,-6.375 2.5,0 2.9375,2.15625 2.9375,4.421875 v 9.28125 c 0,1.796875 -0.4375,1.796875 -3.109375,1.796875 V 0 c 1.40625,-0.046875 3.4375,-0.125 4.515625,-0.125 1.03125,0 3.09375,0.078125 4.453125,0.125 v -1.234375 c -2.0625,0 -3.0625,0 -3.109375,-1.203125 v -7.609375 c 0,-3.421875 0,-4.65625 -1.234375,-6.09375 -0.546875,-0.671875 -1.875,-1.46875 -4.1875,-1.46875 -3.34375,0 -5.09375,2.390625 -5.765625,3.90625 -0.5625,-3.46875 -3.515625,-3.90625 -5.296875,-3.90625 -2.921875,0 -4.78125,1.71875 -5.90625,4.1875 v -4.1875 l -5.609375,0.4375 v 1.234375 c 2.78125,0 3.109375,0.28125 3.109375,2.234375 z m 0,0"
               style="stroke:none"
               inkscape:connector-curvature="0" />
          </symbol>
          <symbol
             id="lx-text1699-glyph0-20"
             overflow="visible"
             style="overflow:visible">
            <path
               id="path3060"
               d="m 6.859375,-14.984375 v -2.625 l -5.75,0.4375 v 1.234375 c 2.828125,0 3.109375,0.234375 3.109375,1.984375 V 4.703125 C 4.21875,6.5 3.78125,6.5 1.109375,6.5 v 1.234375 c 1.359375,-0.046875 3.4375,-0.125 4.46875,-0.125 1.078125,0 3.109375,0.078125 4.5,0.125 V 6.5 C 7.40625,6.5 6.96875,6.5 6.96875,4.703125 V -2.34375 c 0.203125,0.625 1.875,2.78125 4.90625,2.78125 4.734375,0 8.890625,-3.90625 8.890625,-9.046875 0,-5.0625 -3.875,-9 -8.328125,-9 -3.109375,0 -4.78125,1.75 -5.578125,2.625 z m 0.109375,10.4375 v -8.875 c 1.15625,-2.03125 3.109375,-3.1875 5.140625,-3.1875 2.90625,0 5.34375,3.5 5.34375,8 0,4.828125 -2.796875,8.171875 -5.734375,8.171875 -1.59375,0 -3.109375,-0.796875 -4.1875,-2.4375 -0.5625,-0.828125 -0.5625,-0.875 -0.5625,-1.671875 z m 0,0"
               style="stroke:none"
               inkscape:connector-curvature="0" />
          </symbol>
          <symbol
             id="lx-text1699-glyph1-0"
             overflow="visible"
             style="overflow:visible">
            <path
               id="path3063"
               d=""
               style="stroke:none"
               inkscape:connector-curvature="0" />
          </symbol>
          <symbol
             id="lx-text1699-glyph1-1"
             overflow="visible"
             style="overflow:visible">
            <path
               id="path3066"
               d="m 12.515625,-19.25 c -0.15625,-0.4375 -0.25,-0.640625 -0.78125,-0.640625 -0.515625,0 -0.609375,0.203125 -0.765625,0.640625 L 4.515625,-2.921875 C 4.234375,-2.234375 3.765625,-1 1.25,-1 V 0 C 2.203125,-0.078125 3.171875,-0.109375 4.125,-0.109375 5.25,-0.109375 7.3125,0 7.46875,0 v -1 c -1.21875,0 -2,-0.5625 -2,-1.34375 0,-0.21875 0.03125,-0.28125 0.140625,-0.5625 L 6.9375,-6.328125 h 7.921875 l 1.625,4.0625 C 16.546875,-2.125 16.625,-1.921875 16.625,-1.78125 16.625,-1 15.109375,-1 14.359375,-1 v 1 c 1.40625,-0.0625 3.1875,-0.109375 4.15625,-0.109375 1.3125,0 3.40625,0.078125 3.71875,0.109375 v -1 h -0.5625 c -1.875,0 -2.0625,-0.28125 -2.375,-1.0625 z m -1.609375,2.84375 3.5625,9.078125 H 7.328125 Z m 0,0"
               style="stroke:none"
               inkscape:connector-curvature="0" />
          </symbol>
        </g>
      </defs>
      <g
         id="lx-text1699-surface1">
        <g
           id="g3075"
           style="fill:#000000;fill-opacity:1">
          <use
             id="use3073"
             y="0"
             x="0"
             xlink:href="#lx-text1699-glyph0-1"
             width="100%"
             height="100%" />
        </g>
        <g
           id="g3085"
           style="fill:#000000;fill-opacity:1">
          <use
             id="use3077"
             y="0"
             x="43.157982"
             xlink:href="#lx-text1699-glyph0-2"
             width="100%"
             height="100%" />
          <use
             id="use3079"
             y="0"
             x="65.298866"
             xlink:href="#lx-text1699-glyph0-3"
             width="100%"
             height="100%" />
          <use
             id="use3081"
             y="0"
             x="76.369308"
             xlink:href="#lx-text1699-glyph0-4"
             width="100%"
             height="100%" />
          <use
             id="use3083"
             y="0"
             x="94.078827"
             xlink:href="#lx-text1699-glyph0-5"
             width="100%"
             height="100%" />
        </g>
        <g
           id="g3097"
           style="fill:#000000;fill-opacity:1">
          <use
             id="use3087"
             y="0"
             x="125.09837"
             xlink:href="#lx-text1699-glyph0-6"
             width="100%"
             height="100%" />
          <use
             id="use3089"
             y="0"
             x="140.59619"
             xlink:href="#lx-text1699-glyph0-3"
             width="100%"
             height="100%" />
          <use
             id="use3091"
             y="0"
             x="151.66664"
             xlink:href="#lx-text1699-glyph0-6"
             width="100%"
             height="100%" />
          <use
             id="use3093"
             y="0"
             x="167.16446"
             xlink:href="#lx-text1699-glyph0-7"
             width="100%"
             height="100%" />
          <use
             id="use3095"
             y="0"
             x="178.23489"
             xlink:href="#lx-text1699-glyph0-5"
             width="100%"
             height="100%" />
        </g>
        <g
           id="g3105"
           style="fill:#000000;fill-opacity:1">
          <use
             id="use3099"
             y="0"
             x="209.2146"
             xlink:href="#lx-text1699-glyph0-8"
             width="100%"
             height="100%" />
          <use
             id="use3101"
             y="0"
             x="221.39288"
             xlink:href="#lx-text1699-glyph0-9"
             width="100%"
             height="100%" />
          <use
             id="use3103"
             y="0"
             x="241.31808"
             xlink:href="#lx-text1699-glyph0-10"
             width="100%"
             height="100%" />
        </g>
        <g
           id="g3115"
           style="fill:#000000;fill-opacity:1">
          <use
             id="use3107"
             y="0"
             x="270.19766"
             xlink:href="#lx-text1699-glyph0-6"
             width="100%"
             height="100%" />
          <use
             id="use3109"
             y="0"
             x="285.6955"
             xlink:href="#lx-text1699-glyph0-11"
             width="100%"
             height="100%" />
          <use
             id="use3111"
             y="0"
             x="307.83636"
             xlink:href="#lx-text1699-glyph0-3"
             width="100%"
             height="100%" />
          <use
             id="use3113"
             y="0"
             x="318.9068"
             xlink:href="#lx-text1699-glyph0-12"
             width="100%"
             height="100%" />
        </g>
        <g
           id="g3119"
           style="fill:#000000;fill-opacity:1">
          <use
             id="use3117"
             y="0"
             x="347.93384"
             xlink:href="#lx-text1699-glyph0-13"
             width="100%"
             height="100%" />
        </g>
        <g
           id="g3123"
           style="fill:#000000;fill-opacity:1">
          <use
             id="use3121"
             y="-8.1680002"
             x="358.48001"
             xlink:href="#lx-text1699-glyph1-1"
             width="100%"
             height="100%" />
        </g>
        <g
           id="g3127"
           style="fill:#000000;fill-opacity:1">
          <use
             id="use3125"
             y="0"
             x="376.02399"
             xlink:href="#lx-text1699-glyph0-14"
             width="100%"
             height="100%" />
        </g>
        <g
           id="g3131"
           style="fill:#000000;fill-opacity:1">
          <use
             id="use3129"
             y="8.5799999"
             x="398.164"
             xlink:href="#lx-text1699-glyph0-15"
             width="100%"
             height="100%" />
        </g>
        <g
           id="g3149"
           style="fill:#000000;fill-opacity:1">
          <use
             id="use3133"
             y="0"
             x="420.29999"
             xlink:href="#lx-text1699-glyph0-16"
             width="100%"
             height="100%" />
          <use
             id="use3135"
             y="0"
             x="450.18781"
             xlink:href="#lx-text1699-glyph0-5"
             width="100%"
             height="100%" />
          <use
             id="use3137"
             y="0"
             x="467.89731"
             xlink:href="#lx-text1699-glyph0-17"
             width="100%"
             height="100%" />
          <use
             id="use3139"
             y="0"
             x="488.93036"
             xlink:href="#lx-text1699-glyph0-18"
             width="100%"
             height="100%" />
          <use
             id="use3141"
             y="0"
             x="508.85556"
             xlink:href="#lx-text1699-glyph0-19"
             width="100%"
             height="100%" />
          <use
             id="use3143"
             y="0"
             x="542.06293"
             xlink:href="#lx-text1699-glyph0-20"
             width="100%"
             height="100%" />
          <use
             id="use3145"
             y="0"
             x="564.2038"
             xlink:href="#lx-text1699-glyph0-7"
             width="100%"
             height="100%" />
          <use
             id="use3147"
             y="0"
             x="575.27423"
             xlink:href="#lx-text1699-glyph0-5"
             width="100%"
             height="100%" />
        </g>
      </g>
    </g>
  </g>
</svg>
